<svg width="211" height="38" viewBox="0 0 211 38" fill="none" xmlns="http://www.w3.org/2000/svg">
<path d="M3.12 7.656L1.2 7.368V6.168H5.664L13.656 17.88L15 20.424V7.656L12.912 7.368V6.168H18.576V7.368L16.656 7.656V24H14.76L6.6 12.024L4.752 8.856V22.584L7.032 22.824V24H1.2V22.824L3.12 22.56V7.656ZM20.3719 17.304C20.3719 15.864 20.6679 14.616 21.2599 13.56C21.8519 12.504 22.6279 11.704 23.5879 11.16C24.5639 10.6 25.6039 10.32 26.7079 10.32C28.7239 10.32 30.2359 10.96 31.2439 12.24C32.2679 13.52 32.7799 15.2 32.7799 17.28C32.7799 18.736 32.4839 19.992 31.8919 21.048C31.2999 22.104 30.5159 22.904 29.5399 23.448C28.5799 23.992 27.5479 24.264 26.4439 24.264C24.4279 24.264 22.9079 23.624 21.8839 22.344C20.8759 21.064 20.3719 19.384 20.3719 17.304ZM26.5879 22.896C27.6919 22.896 28.5399 22.44 29.1319 21.528C29.7239 20.616 30.0199 19.264 30.0199 17.472C30.0199 15.696 29.7479 14.288 29.2039 13.248C28.6599 12.208 27.7879 11.688 26.5879 11.688C25.4839 11.688 24.6279 12.144 24.0199 13.056C23.4279 13.968 23.1319 15.32 23.1319 17.112C23.1319 18.888 23.4119 20.296 23.9719 21.336C24.5319 22.376 25.4039 22.896 26.5879 22.896ZM23.7799 8.232C23.3479 8.232 23.0039 8.088 22.7479 7.8C22.5079 7.512 22.3879 7.152 22.3879 6.72C22.3879 6.224 22.5239 5.808 22.7959 5.472C23.0679 5.12 23.4599 4.944 23.9719 4.944C24.4199 4.944 24.7719 5.096 25.0279 5.4C25.2839 5.704 25.4119 6.064 25.4119 6.48C25.4119 6.992 25.2759 7.416 25.0039 7.752C24.7319 8.072 24.3239 8.232 23.7799 8.232ZM29.1799 8.232C28.7799 8.232 28.4519 8.088 28.1959 7.8C27.9559 7.496 27.8359 7.136 27.8359 6.72C27.8359 6.224 27.9719 5.808 28.2439 5.472C28.5159 5.12 28.9079 4.944 29.4199 4.944C29.8679 4.944 30.2119 5.096 30.4519 5.4C30.7079 5.704 30.8359 6.064 30.8359 6.48C30.8359 6.992 30.6999 7.416 30.4279 7.752C30.1559 8.072 29.7399 8.232 29.1799 8.232ZM33.9894 10.68H39.5574V11.808L37.8534 12.12L40.2774 19.032L41.2854 22.08L42.1494 19.128L44.5734 12.12L42.9414 11.808V10.68H47.8134V11.808L46.5654 12.12L41.9334 24.192H39.8934L35.0694 12.12L33.9894 11.808V10.68ZM47.7261 4.8L51.5661 4.344H51.6141L52.1661 4.704V11.928C52.6461 11.464 53.2141 11.08 53.8701 10.776C54.5421 10.472 55.2861 10.32 56.1021 10.32C57.0621 10.32 57.9341 10.552 58.7181 11.016C59.5181 11.48 60.1501 12.2 60.6141 13.176C61.0941 14.152 61.3341 15.384 61.3341 16.872C61.3341 18.248 61.0461 19.496 60.4701 20.616C59.9101 21.736 59.1021 22.624 58.0461 23.28C56.9901 23.936 55.7661 24.264 54.3741 24.264C53.2701 24.264 52.2621 24.16 51.3501 23.952C50.4381 23.728 49.8861 23.528 49.6941 23.352V6.072L47.7261 5.808V4.8ZM55.1181 12.024C54.5101 12.024 53.9421 12.168 53.4141 12.456C52.9021 12.728 52.4861 13.04 52.1661 13.392V22.224C52.2621 22.448 52.5341 22.632 52.9821 22.776C53.4461 22.904 53.9661 22.968 54.5421 22.968C55.7741 22.968 56.7661 22.472 57.5181 21.48C58.2701 20.488 58.6461 19.04 58.6461 17.136C58.6461 15.424 58.3181 14.144 57.6621 13.296C57.0061 12.448 56.1581 12.024 55.1181 12.024ZM68.5442 10.416C70.4802 10.416 71.9522 11.048 72.9602 12.312C73.9842 13.576 74.4962 15.264 74.4962 17.376C74.4962 18.768 74.2322 19.992 73.7042 21.048C73.1762 22.104 72.4322 22.92 71.4722 23.496C70.5282 24.072 69.4482 24.36 68.2322 24.36C66.7442 24.36 65.5842 23.952 64.7522 23.136C63.9362 22.304 63.5042 21.12 63.4562 19.584C63.4562 18.608 63.5122 17.864 63.6242 17.352H71.8802C71.8482 15.768 71.4802 14.496 70.7762 13.536C70.0722 12.56 69.0722 12.072 67.7762 12.072C67.1362 12.072 66.4642 12.192 65.7602 12.432C65.0722 12.656 64.5362 12.928 64.1522 13.248L63.6962 12.192C64.1602 11.712 64.8482 11.296 65.7602 10.944C66.6722 10.592 67.6002 10.416 68.5442 10.416ZM66.0962 18.624C66.0482 18.96 66.0242 19.304 66.0242 19.656C66.0402 20.696 66.2562 21.52 66.6722 22.128C67.1042 22.72 67.7762 23.016 68.6882 23.016C69.6162 23.016 70.3522 22.68 70.8962 22.008C71.4562 21.336 71.7762 20.208 71.8562 18.624H66.0962ZM80.8309 24.24C79.9189 24.24 79.2389 24.032 78.7909 23.616C78.3429 23.2 78.1189 22.488 78.1189 21.48V12.264H76.3909V11.184C76.4709 11.168 76.6949 11.112 77.0629 11.016C77.4309 10.92 77.6789 10.832 77.8069 10.752C78.0629 10.608 78.2629 10.32 78.4069 9.888C78.5349 9.584 78.6869 9.096 78.8629 8.424C79.0389 7.752 79.1429 7.352 79.1749 7.224H80.5909L80.6389 10.68H84.6469V12.264H80.6389V19.632C80.6389 20.544 80.6629 21.184 80.7109 21.552C80.7749 21.92 80.8949 22.16 81.0709 22.272C81.2629 22.384 81.5829 22.44 82.0309 22.44C82.4629 22.44 82.9349 22.384 83.4469 22.272C83.9749 22.16 84.3829 22.04 84.6709 21.912L85.0309 22.992C84.6469 23.28 84.0229 23.56 83.1589 23.832C82.3109 24.104 81.5349 24.24 80.8309 24.24ZM89.4523 8.28C88.9403 8.28 88.5563 8.136 88.3003 7.848C88.0443 7.56 87.9163 7.192 87.9163 6.744C87.9163 6.232 88.0683 5.808 88.3723 5.472C88.6923 5.136 89.1243 4.968 89.6683 4.968C90.2123 4.968 90.6123 5.112 90.8683 5.4C91.1243 5.688 91.2523 6.056 91.2523 6.504C91.2523 7.048 91.0923 7.48 90.7723 7.8C90.4683 8.12 90.0363 8.28 89.4763 8.28H89.4523ZM88.4923 12.528L86.6683 12.096V10.824L90.3883 10.368H90.4363L90.9883 10.8V22.632L92.9083 22.824V24H86.5483V22.824L88.4923 22.608V12.528ZM106.428 7.44L102.3 7.584L101.46 12.6H99.8758L100.284 6.168H115.236L115.524 12.6H114.012L113.22 7.584L109.068 7.44V22.584L112.476 22.824V24H103.308V22.824L106.428 22.584V7.44ZM122.277 10.416C124.213 10.416 125.685 11.048 126.693 12.312C127.717 13.576 128.229 15.264 128.229 17.376C128.229 18.768 127.965 19.992 127.437 21.048C126.909 22.104 126.165 22.92 125.205 23.496C124.261 24.072 123.181 24.36 121.965 24.36C120.477 24.36 119.317 23.952 118.485 23.136C117.669 22.304 117.237 21.12 117.189 19.584C117.189 18.608 117.245 17.864 117.357 17.352H125.613C125.581 15.768 125.213 14.496 124.509 13.536C123.805 12.56 122.805 12.072 121.509 12.072C120.869 12.072 120.197 12.192 119.493 12.432C118.805 12.656 118.269 12.928 117.885 13.248L117.429 12.192C117.893 11.712 118.581 11.296 119.493 10.944C120.405 10.592 121.333 10.416 122.277 10.416ZM119.829 18.624C119.781 18.96 119.757 19.304 119.757 19.656C119.773 20.696 119.989 21.52 120.405 22.128C120.837 22.72 121.509 23.016 122.421 23.016C123.349 23.016 124.085 22.68 124.629 22.008C125.189 21.336 125.509 20.208 125.589 18.624H119.829ZM135.644 24.264C134.684 24.264 133.804 24.024 133.004 23.544C132.204 23.064 131.564 22.328 131.084 21.336C130.62 20.344 130.388 19.12 130.388 17.664C130.388 16.304 130.668 15.064 131.228 13.944C131.788 12.824 132.588 11.944 133.628 11.304C134.684 10.648 135.924 10.32 137.348 10.32C138.164 10.32 138.908 10.408 139.58 10.584V6.096L137.132 5.808V4.776L141.452 4.344H141.524L142.052 4.728V22.776H143.444V23.88C142.932 23.992 142.484 24.08 142.1 24.144C141.732 24.208 141.34 24.24 140.924 24.24C140.508 24.24 140.212 24.168 140.036 24.024C139.86 23.88 139.772 23.576 139.772 23.112V22.344C139.324 22.888 138.732 23.344 137.996 23.712C137.276 24.08 136.492 24.264 135.644 24.264ZM136.604 22.56C137.228 22.56 137.812 22.424 138.356 22.152C138.9 21.864 139.308 21.536 139.58 21.168V12.384C139.452 12.192 139.148 12.024 138.668 11.88C138.204 11.72 137.708 11.64 137.18 11.64C135.932 11.64 134.932 12.12 134.18 13.08C133.444 14.024 133.076 15.488 133.076 17.472C133.076 19.2 133.404 20.48 134.06 21.312C134.716 22.144 135.564 22.56 136.604 22.56ZM144.358 4.8L148.198 4.344H148.246L148.798 4.704V11.928C149.278 11.464 149.846 11.08 150.502 10.776C151.174 10.472 151.918 10.32 152.734 10.32C153.694 10.32 154.566 10.552 155.35 11.016C156.15 11.48 156.782 12.2 157.246 13.176C157.726 14.152 157.966 15.384 157.966 16.872C157.966 18.248 157.678 19.496 157.102 20.616C156.542 21.736 155.734 22.624 154.678 23.28C153.622 23.936 152.398 24.264 151.006 24.264C149.902 24.264 148.894 24.16 147.982 23.952C147.07 23.728 146.518 23.528 146.326 23.352V6.072L144.358 5.808V4.8ZM151.75 12.024C151.142 12.024 150.574 12.168 150.046 12.456C149.534 12.728 149.118 13.04 148.798 13.392V22.224C148.894 22.448 149.166 22.632 149.614 22.776C150.078 22.904 150.598 22.968 151.174 22.968C152.406 22.968 153.398 22.472 154.15 21.48C154.902 20.488 155.278 19.04 155.278 17.136C155.278 15.424 154.95 14.144 154.294 13.296C153.638 12.448 152.79 12.024 151.75 12.024ZM163.016 8.28C162.504 8.28 162.12 8.136 161.864 7.848C161.608 7.56 161.48 7.192 161.48 6.744C161.48 6.232 161.632 5.808 161.936 5.472C162.256 5.136 162.688 4.968 163.232 4.968C163.776 4.968 164.176 5.112 164.432 5.4C164.688 5.688 164.816 6.056 164.816 6.504C164.816 7.048 164.656 7.48 164.336 7.8C164.032 8.12 163.6 8.28 163.04 8.28H163.016ZM162.056 12.528L160.232 12.096V10.824L163.952 10.368H164L164.552 10.8V22.632L166.472 22.824V24H160.112V22.824L162.056 22.608V12.528ZM168.344 22.824L170.144 22.68V12.528L168.416 12.096V10.8L171.728 10.368H171.776L172.304 10.8V11.232L172.232 13.104H172.304C172.464 12.832 172.752 12.48 173.168 12.048C173.584 11.616 174.12 11.224 174.776 10.872C175.432 10.504 176.144 10.32 176.912 10.32C177.232 10.32 177.496 10.36 177.704 10.44V13.128C177.592 13.048 177.408 12.976 177.152 12.912C176.912 12.832 176.64 12.792 176.336 12.792C175.008 12.792 173.776 13.2 172.64 14.016V22.656L175.688 22.848V24H168.344V22.824ZM181.16 6.096L179.216 5.832V4.8L183.08 4.344H183.128L183.656 4.704V22.632L185.696 22.824V24H179.216V22.824L181.16 22.608V6.096ZM192.513 10.416C194.449 10.416 195.921 11.048 196.929 12.312C197.953 13.576 198.465 15.264 198.465 17.376C198.465 18.768 198.201 19.992 197.673 21.048C197.145 22.104 196.401 22.92 195.441 23.496C194.497 24.072 193.417 24.36 192.201 24.36C190.713 24.36 189.553 23.952 188.721 23.136C187.905 22.304 187.473 21.12 187.425 19.584C187.425 18.608 187.481 17.864 187.593 17.352H195.849C195.817 15.768 195.449 14.496 194.745 13.536C194.041 12.56 193.041 12.072 191.745 12.072C191.105 12.072 190.433 12.192 189.729 12.432C189.041 12.656 188.505 12.928 188.121 13.248L187.665 12.192C188.129 11.712 188.817 11.296 189.729 10.944C190.641 10.592 191.569 10.416 192.513 10.416ZM190.065 18.624C190.017 18.96 189.993 19.304 189.993 19.656C190.009 20.696 190.225 21.52 190.641 22.128C191.073 22.72 191.745 23.016 192.657 23.016C193.585 23.016 194.321 22.68 194.865 22.008C195.425 21.336 195.745 20.208 195.825 18.624H190.065ZM200.743 22.824L202.543 22.68V12.528L200.815 12.096V10.8L204.127 10.368H204.175L204.703 10.8V11.232L204.631 13.104H204.703C204.863 12.832 205.151 12.48 205.567 12.048C205.983 11.616 206.519 11.224 207.175 10.872C207.831 10.504 208.543 10.32 209.311 10.32C209.631 10.32 209.895 10.36 210.103 10.44V13.128C209.991 13.048 209.807 12.976 209.551 12.912C209.311 12.832 209.039 12.792 208.735 12.792C207.407 12.792 206.175 13.2 205.039 14.016V22.656L208.087 22.848V24H200.743V22.824Z" fill="black"/>
<line x1="1.31134e-07" y1="36.5" x2="64" y2="36.5" stroke="#00A9D2" stroke-width="3"/>
<line x1="74" y1="36.5" x2="138" y2="36.5" stroke="#D72C18" stroke-width="3"/>
<line x1="147" y1="36.5" x2="211" y2="36.5" stroke="#00A65A" stroke-width="3"/>
</svg>
