<svg width="21" height="21" viewBox="0 0 21 21" fill="none" xmlns="http://www.w3.org/2000/svg">
<path fill-rule="evenodd" clip-rule="evenodd" d="M4.14839 0.0408715C4.39157 0.0204357 4.60002 0.0796994 4.73489 0.302449C5.03734 0.792907 5.34184 1.28336 5.62998 1.78608C5.96308 2.36646 6.26962 2.96318 6.59659 3.54969C6.68038 3.70704 6.79686 3.85009 6.89495 4.00132C6.98487 4.14437 7.0707 4.29151 7.15449 4.43456C7.32615 4.75948 7.31797 5.08646 7.06253 5.34599C6.69877 5.71792 6.29823 6.06329 5.91199 6.41682C5.58911 6.71314 5.25396 6.9972 4.93925 7.29965C4.69402 7.5367 4.63067 7.83302 4.7962 8.14569C5.05165 8.62388 5.30505 9.10208 5.58502 9.57006C6.62316 11.301 7.94944 12.7723 9.62517 13.9065C10.2709 14.3459 10.9433 14.7485 11.6217 15.1327C12.2614 15.4944 12.5107 15.4331 13.0073 14.8793C13.4691 14.3663 13.9146 13.8452 14.3744 13.3282C14.4848 13.2035 14.6176 13.0932 14.7464 12.9869C15.0079 12.7662 15.294 12.7417 15.5944 12.8929C15.6782 12.9338 15.7682 12.9706 15.8417 13.0237C16.6387 13.5939 17.5297 13.9964 18.3717 14.4808C18.8233 14.7403 19.2627 15.0182 19.7061 15.2839C19.9452 15.4249 20.0413 15.6313 20.0249 15.9154C19.98 16.7144 19.8471 17.4991 19.3832 18.1735C19.1891 18.4535 18.9132 18.6987 18.6353 18.8969C17.8649 19.4364 17.0045 19.7695 16.089 19.9739C15.2573 20.1599 14.4276 20.0924 13.6306 19.8431C12.0918 19.369 10.5754 18.8254 9.17967 18.0018C7.91265 17.2519 6.76008 16.3466 5.69333 15.335C4.34253 14.0496 3.13682 12.6477 2.16203 11.0517C1.52648 10.0156 1.07281 8.89977 0.66205 7.7615C0.412734 7.07486 0.167505 6.39434 0.0571523 5.66683C-0.0695494 4.84327 0.0183243 4.05036 0.281945 3.26972C0.519 2.56469 0.815318 1.89031 1.26286 1.28745C1.61436 0.819473 2.05372 0.476153 2.62184 0.322885C3.07756 0.202314 3.53736 0.106266 3.99512 0C4.05438 0.0470022 4.10139 0.0470022 4.14839 0.0408715Z" fill="black" fill-opacity="0.8"/>
</svg>
