<svg width="23" height="19" viewBox="0 0 23 19" fill="none" xmlns="http://www.w3.org/2000/svg">
<path fill-rule="evenodd" clip-rule="evenodd" d="M11.0604 5.58101L11.1098 6.36921L10.2868 6.27269C7.29131 5.90272 4.67434 4.64804 2.45238 2.54082L1.36609 1.49525L1.08629 2.26736C0.493768 3.98853 0.872324 5.80621 2.10674 7.02872C2.7651 7.70432 2.61697 7.80083 1.4813 7.39869C1.08629 7.27001 0.740652 7.17349 0.707734 7.22175C0.592522 7.33435 0.987536 8.79814 1.30026 9.37723C1.72819 10.1815 2.60051 10.9697 3.55513 11.4362L4.36162 11.8062L3.407 11.8223C2.4853 11.8223 2.45238 11.8383 2.55114 12.1761C2.88031 13.2217 4.18057 14.3316 5.62896 14.8142L6.64941 15.152L5.76063 15.6667C4.44391 16.4067 2.89677 16.8249 1.34963 16.8571C0.608981 16.8731 0 16.9375 0 16.9857C0 17.1466 2.00799 18.0474 3.17657 18.4013C6.68233 19.4469 10.8464 18.9965 13.9736 17.2109C16.1956 15.9402 18.4175 13.4147 19.4545 10.9697C20.0141 9.66677 20.5737 7.28609 20.5737 6.14401C20.5737 5.40407 20.623 5.30755 21.5447 4.42284C22.0879 3.9081 22.5981 3.3451 22.6969 3.18425C22.8615 2.87862 22.845 2.87862 22.0056 3.15208C20.6066 3.63465 20.4091 3.5703 21.1004 2.84645C21.6106 2.33171 22.2196 1.39874 22.2196 1.12528C22.2196 1.07702 21.9727 1.15745 21.6929 1.30222C21.3966 1.46308 20.7383 1.70437 20.2445 1.84914L19.3557 2.12259L18.5492 1.59177C18.1048 1.30222 17.4794 0.98051 17.1502 0.883996C16.3108 0.658797 15.027 0.690968 14.2699 0.948339C12.2125 1.67219 10.9123 3.53813 11.0604 5.58101Z" fill="#55ACEE"/>
</svg>
